<svg width="46" height="47" viewBox="0 0 46 47" fill="none" xmlns="http://www.w3.org/2000/svg">
<g id="healing_24px">
<path id="icon/image/healing_24px" fill-rule="evenodd" clip-rule="evenodd" d="M34.0112 23.5L41.6395 15.7058C42.387 14.9421 42.387 13.7083 41.6395 12.9446L33.3212 4.4454C32.9631 4.0787 32.4769 3.87262 31.97 3.87262C31.463 3.87262 30.9768 4.0787 30.6187 4.4454L22.9904 12.2396L15.362 4.4454C14.9787 4.07332 14.4995 3.87749 14.0012 3.87749C13.522 3.87749 13.0237 4.07332 12.6595 4.4454L4.3412 12.9446C3.5937 13.7083 3.5937 14.9421 4.3412 15.7058L11.9695 23.5L4.3412 31.2942C3.5937 32.0579 3.5937 33.2917 4.3412 34.0554L12.6595 42.5546C13.407 43.3183 14.6145 43.3183 15.362 42.5546L22.9904 34.7604L30.6187 42.5546C31.002 42.9462 31.4812 43.1225 31.9795 43.1225C32.4779 43.1225 32.957 42.9267 33.3404 42.5546L41.6587 34.0554C42.4062 33.2917 42.4062 32.0579 41.6587 31.2942L34.0112 23.5ZM23.0287 17.5858C24.0829 17.5858 24.9454 18.4671 24.9454 19.5441C24.9454 20.6212 24.0829 21.5025 23.0287 21.5025C21.9745 21.5025 21.112 20.6212 21.112 19.5441C21.112 18.4671 21.9745 17.5858 23.0287 17.5858ZM7.04372 14.335L14.0012 21.4242L20.9396 14.3154L14.0012 7.22625L7.04372 14.335ZM19.1954 25.4191C18.1412 25.4191 17.2787 24.5379 17.2787 23.4608C17.2787 22.3837 18.1412 21.5025 19.1954 21.5025C20.2495 21.5025 21.112 22.3837 21.112 23.4608C21.112 24.5379 20.2495 25.4191 19.1954 25.4191ZM21.112 27.3775C21.112 28.4546 21.9745 29.3358 23.0287 29.3358C24.0829 29.3358 24.9454 28.4546 24.9454 27.3775C24.9454 26.3004 24.0829 25.4191 23.0287 25.4191C21.9745 25.4191 21.112 26.3004 21.112 27.3775ZM26.862 21.5025C27.9162 21.5025 28.7787 22.3837 28.7787 23.4608C28.7787 24.5379 27.9162 25.4191 26.862 25.4191C25.8079 25.4191 24.9454 24.5379 24.9454 23.4608C24.9454 22.3837 25.8079 21.5025 26.862 21.5025ZM25.0029 32.7042L31.9604 39.7933L38.8987 32.6846L31.9604 25.5954L25.0029 32.7042Z" fill="white"/>
</g>
</svg>
